<?xml version="1.0" encoding="iso-8859-1"?>
<!-- Generator: Adobe Illustrator 19.0.0, SVG Export Plug-In . SVG Version: 6.00 Build 0)  -->
<svg version="1.1" id="Capa_1" xmlns="http://www.w3.org/2000/svg" xmlns:xlink="http://www.w3.org/1999/xlink" x="0px" y="0px"
	 viewBox="0 0 512 512" style="enable-background:new 0 0 512 512;" xml:space="preserve">
<g>
	<g>
		<path d="M503.172,476.69c-4.873,0-8.828,3.955-8.828,8.828v8.828h-8.828c-4.873,0-8.828,3.955-8.828,8.828
			s3.955,8.828,8.828,8.828h17.655c4.873,0,8.828-3.955,8.828-8.828v-17.655C512,480.644,508.045,476.69,503.172,476.69z"/>
	</g>
</g>
<g>
	<g>
		<g>
			<path d="M354.366,494.345H321.58c-4.873,0-8.828,3.955-8.828,8.828S316.707,512,321.58,512h32.786
				c4.873,0,8.828-3.955,8.828-8.828S359.239,494.345,354.366,494.345z"/>
			<path d="M436.339,494.345h-32.786c-4.873,0-8.828,3.955-8.828,8.828S398.68,512,403.553,512h32.786
				c4.873,0,8.828-3.955,8.828-8.828S441.212,494.345,436.339,494.345z"/>
		</g>
	</g>
</g>
<g>
	<g>
		<g>
			<path d="M108.456,494.345H75.67c-4.873,0-8.828,3.955-8.828,8.828S70.797,512,75.67,512h32.786c4.873,0,8.828-3.955,8.828-8.828
				S113.329,494.345,108.456,494.345z"/>
			<path d="M190.429,494.345h-32.786c-4.873,0-8.828,3.955-8.828,8.828S152.77,512,157.643,512h32.786
				c4.873,0,8.828-3.955,8.828-8.828S195.302,494.345,190.429,494.345z"/>
			<path d="M272.393,494.345h-32.786c-4.873,0-8.828,3.955-8.828,8.828s3.955,8.828,8.828,8.828h32.786
				c4.882,0,8.828-3.955,8.828-8.828S277.266,494.345,272.393,494.345z"/>
		</g>
	</g>
</g>
<g>
	<g>
		<path d="M26.483,494.345h-8.828v-8.828c0-4.873-3.955-8.828-8.828-8.828c-4.873,0-8.828,3.955-8.828,8.828v17.655
			C0,508.045,3.955,512,8.828,512h17.655c4.873,0,8.828-3.955,8.828-8.828S31.356,494.345,26.483,494.345z"/>
	</g>
</g>
<g>
	<g>
		<g>
			<path d="M8.828,394.726c-4.873,0-8.828,3.955-8.828,8.828v32.786c0,4.873,3.955,8.828,8.828,8.828
				c4.873,0,8.828-3.955,8.828-8.828v-32.786C17.655,398.68,13.7,394.726,8.828,394.726z"/>
			<path d="M8.828,312.753c-4.873,0-8.828,3.955-8.828,8.828v32.786c0,4.873,3.955,8.828,8.828,8.828
				c4.873,0,8.828-3.955,8.828-8.828V321.58C17.655,316.707,13.7,312.753,8.828,312.753z"/>
		</g>
	</g>
</g>
<g>
	<g>
		<g>
			<path d="M8.828,230.78c-4.873,0-8.828,3.955-8.828,8.828v32.786c0,4.873,3.955,8.828,8.828,8.828
				c4.873,0,8.828-3.955,8.828-8.828v-32.786C17.655,234.734,13.7,230.78,8.828,230.78z"/>
			<path d="M8.828,66.834C3.955,66.834,0,70.788,0,75.661v32.794c0,4.873,3.955,8.828,8.828,8.828c4.873,0,8.828-3.955,8.828-8.836
				V75.661C17.655,70.788,13.7,66.834,8.828,66.834z"/>
			<path d="M8.828,148.807c-4.873,0-8.828,3.955-8.828,8.828v32.786c0,4.873,3.955,8.828,8.828,8.828
				c4.873,0,8.828-3.946,8.828-8.828v-32.786C17.655,152.761,13.7,148.807,8.828,148.807z"/>
		</g>
	</g>
</g>
<g>
	<g>
		<path d="M26.483,0H8.828C3.955,0,0,3.955,0,8.828v17.655c0,4.873,3.955,8.828,8.828,8.828c4.873,0,8.828-3.955,8.828-8.828v-8.828
			h8.828c4.873,0,8.828-3.955,8.828-8.828C35.31,3.955,31.356,0,26.483,0z"/>
	</g>
</g>
<g>
	<g>
		<g>
			<path d="M108.447,0H75.661c-4.873,0-8.828,3.955-8.828,8.828c0,4.873,3.955,8.828,8.828,8.828h32.794
				c4.873,0,8.819-3.955,8.819-8.828C117.274,3.955,113.32,0,108.447,0z"/>
			<path d="M190.42,0h-32.786c-4.873,0-8.828,3.955-8.828,8.828c0,4.873,3.955,8.828,8.828,8.828h32.786
				c4.882,0,8.828-3.955,8.828-8.828C199.247,3.955,195.293,0,190.42,0z"/>
		</g>
	</g>
</g>
<g>
	<g>
		<g>
			<path d="M272.393,0h-32.786c-4.873,0-8.828,3.955-8.828,8.828c0,4.873,3.955,8.828,8.828,8.828h32.786
				c4.873,0,8.828-3.955,8.828-8.828C281.22,3.955,277.266,0,272.393,0z"/>
			<path d="M436.33,0h-32.786c-4.873,0-8.828,3.955-8.828,8.828c0,4.873,3.955,8.828,8.828,8.828h32.786
				c4.873,0,8.828-3.955,8.828-8.828C445.158,3.955,441.203,0,436.33,0z"/>
			<path d="M354.366,0H321.58c-4.873,0-8.828,3.955-8.828,8.828c0,4.873,3.955,8.828,8.828,8.828h32.786
				c4.873,0,8.828-3.955,8.828-8.828C363.193,3.955,359.239,0,354.366,0z"/>
		</g>
	</g>
</g>
<g>
	<g>
		<path d="M503.172,0h-17.655c-4.873,0-8.828,3.955-8.828,8.828c0,4.873,3.955,8.828,8.828,8.828h8.828v8.828
			c0,4.873,3.955,8.828,8.828,8.828S512,31.356,512,26.483V8.828C512,3.955,508.045,0,503.172,0z"/>
	</g>
</g>
<g>
	<g>
		<g>
			<path d="M503.172,148.807c-4.873,0-8.828,3.955-8.828,8.828v32.786c0,4.873,3.955,8.828,8.828,8.828S512,195.302,512,190.42
				v-32.786C512,152.761,508.045,148.807,503.172,148.807z"/>
			<path d="M503.172,66.834c-4.873,0-8.828,3.955-8.828,8.828v32.794c0,4.873,3.955,8.828,8.828,8.828s8.828-3.955,8.828-8.836
				V75.661C512,70.788,508.045,66.834,503.172,66.834z"/>
		</g>
	</g>
</g>
<g>
	<g>
		<g>
			<path d="M503.172,394.726c-4.873,0-8.828,3.955-8.828,8.828v32.786c0,4.873,3.955,8.828,8.828,8.828s8.828-3.955,8.828-8.828
				v-32.786C512,398.68,508.045,394.726,503.172,394.726z"/>
			<path d="M503.172,230.78c-4.873,0-8.828,3.955-8.828,8.828v32.786c0,4.873,3.955,8.828,8.828,8.828s8.828-3.946,8.828-8.828
				v-32.786C512,234.734,508.045,230.78,503.172,230.78z"/>
			<path d="M503.172,312.753c-4.873,0-8.828,3.955-8.828,8.828v32.786c0,4.873,3.955,8.828,8.828,8.828s8.828-3.955,8.828-8.828
				V321.58C512,316.707,508.045,312.753,503.172,312.753z"/>
		</g>
	</g>
</g>
<g>
	<g>
		<path d="M132.414,44.138c-4.873,0-8.828,3.955-8.828,8.828v406.069c0,4.873,3.955,8.828,8.828,8.828
			c4.873,0,8.828-3.955,8.828-8.828V52.966C141.241,48.093,137.287,44.138,132.414,44.138z"/>
	</g>
</g>
<g>
	<g>
		<path d="M256,44.138c-4.873,0-8.828,3.955-8.828,8.828v406.069c0,4.873,3.955,8.828,8.828,8.828s8.828-3.955,8.828-8.828V52.966
			C264.828,48.093,260.873,44.138,256,44.138z"/>
	</g>
</g>
<g>
	<g>
		<path d="M379.586,44.138c-4.873,0-8.828,3.955-8.828,8.828v406.069c0,4.873,3.955,8.828,8.828,8.828
			c4.873,0,8.828-3.955,8.828-8.828V52.966C388.414,48.093,384.459,44.138,379.586,44.138z"/>
	</g>
</g>
<g>
	<g>
		<path d="M459.034,123.586H52.966c-4.873,0-8.828,3.955-8.828,8.828c0,4.873,3.955,8.828,8.828,8.828h406.069
			c4.873,0,8.828-3.955,8.828-8.828C467.862,127.541,463.907,123.586,459.034,123.586z"/>
	</g>
</g>
<g>
	<g>
		<path d="M459.034,247.172H52.966c-4.873,0-8.828,3.955-8.828,8.828s3.955,8.828,8.828,8.828h406.069
			c4.873,0,8.828-3.955,8.828-8.828S463.907,247.172,459.034,247.172z"/>
	</g>
</g>
<g>
	<g>
		<path d="M459.034,370.759H52.966c-4.873,0-8.828,3.955-8.828,8.828c0,4.873,3.955,8.828,8.828,8.828h406.069
			c4.873,0,8.828-3.955,8.828-8.828C467.862,374.713,463.907,370.759,459.034,370.759z"/>
	</g>
</g>
<g>
</g>
<g>
</g>
<g>
</g>
<g>
</g>
<g>
</g>
<g>
</g>
<g>
</g>
<g>
</g>
<g>
</g>
<g>
</g>
<g>
</g>
<g>
</g>
<g>
</g>
<g>
</g>
<g>
</g>
</svg>
