<svg id="Layer_1" enable-background="new 0 0 24 24" viewBox="0 0 24 24" xmlns="http://www.w3.org/2000/svg"><g><g><path d="m14.5 24h-3.758c-.922 0-1.823-.374-2.475-1.025l-1.654-1.655c-1.685-1.685-2.613-3.926-2.613-6.309v-4.511c0-.827.673-1.5 1.5-1.5.563 0 1.082.187 1.5.501v-5.501c0-1.103.897-2 2-2 .364 0 .706.098 1 .269v-.269c0-1.103.897-2 2-2s2 .897 2 2v.269c.294-.171.636-.269 1-.269 1.103 0 2 .897 2 2v.269c.294-.171.636-.269 1-.269 1.103 0 2 .897 2 2v12.5c0 3.033-2.468 5.5-5.5 5.5zm-9-14c-.275 0-.5.224-.5.5v4.511c0 2.116.824 4.105 2.32 5.602l1.654 1.654c.465.466 1.11.733 1.768.733h3.758c2.481 0 4.5-2.019 4.5-4.5v-12.5c0-.551-.448-1-1-1s-1 .449-1 1v4.5c0 .276-.224.5-.5.5s-.5-.224-.5-.5v-6.5c0-.551-.448-1-1-1s-1 .449-1 1v6.5c0 .276-.224.5-.5.5s-.5-.224-.5-.5v-8.5c0-.551-.448-1-1-1s-1 .449-1 1v8.5c0 .276-.224.5-.5.5s-.5-.224-.5-.5v-6.5c0-.551-.448-1-1-1s-1 .449-1 1v10.5c0 .276-.224.5-.5.5s-.5-.224-.5-.5v-3c0-.827-.673-1.5-1.5-1.5z"/></g></g><g/><g/><g/><g/><g/><g/><g/><g/><g/><g/><g/><g/><g/><g/><g/></svg>