<svg id="Layer_1" height="512" viewBox="0 0 32 32" width="512" xmlns="http://www.w3.org/2000/svg" data-name="Layer 1"><g fill="rgb(0,0,0)"><path d="m31.84 2.4c-1.42-1.33-2.9-.64-4.09-.09s-1.94.84-2.74.31v-.82a.63.63 0 0 0 -1.26 0v13.25a.63.63 0 0 0 1.26 0v-6.54a2.43 2.43 0 0 0 .87.16 5.6 5.6 0 0 0 2.28-.67c1.28-.6 2.12-.92 3-.08a.47.47 0 0 0 .52.09.48.48 0 0 0 .32-.46v-4.8a.44.44 0 0 0 -.16-.35z"/><path d="m4.68 17.36a4.69 4.69 0 0 0 -4.68 4.64c0 2.41 3.85 7.71 4.29 8.3a.47.47 0 0 0 .39.2.46.46 0 0 0 .39-.2c.44-.59 4.3-5.89 4.3-8.3a4.69 4.69 0 0 0 -4.69-4.64zm0 6.86a2.18 2.18 0 1 1 2.19-2.22 2.18 2.18 0 0 1 -2.19 2.22z"/><path d="m21.84 15.55a.7.7 0 0 0 .5.2.62.62 0 0 0 .27-.05.75.75 0 0 0 .23-.15.7.7 0 0 0 .15-.24.58.58 0 0 0 .05-.26.7.7 0 0 0 -.2-.5.76.76 0 0 0 -.23-.15.69.69 0 0 0 -.92.38.6.6 0 0 0 -.06.27.79.79 0 0 0 .07.3.73.73 0 0 0 .14.2z"/><path d="m20.69 15.71a.72.72 0 0 0 .7-.72.71.71 0 0 0 -1.39.01.71.71 0 0 0 .69.71z"/><path d="m19 15.79a.7.7 0 0 0 .64-.76.71.71 0 0 0 -.76-.65.75.75 0 0 0 -.49.25.73.73 0 0 0 -.16.51.71.71 0 0 0 .77.65z"/><path d="m17.23 16h.1a.72.72 0 0 0 .47-.28.73.73 0 0 0 .13-.53.72.72 0 0 0 -.28-.46.71.71 0 0 0 -.53-.13.7.7 0 0 0 -.46.28.72.72 0 0 0 -.13.53.71.71 0 0 0 .7.59z"/><path d="m15.57 16.43a.75.75 0 0 0 .29-.06.7.7 0 1 0 -.94-.35.72.72 0 0 0 .65.41z"/><path d="m14 17.46a.85.85 0 0 0 .31.06.7.7 0 0 0 .63-.37.71.71 0 1 0 -1.25-.66.71.71 0 0 0 .31.97z"/><path d="m14.16 19.22a.87.87 0 0 0 .25 0 .7.7 0 0 0 .41-.91.71.71 0 0 0 -.38-.4.7.7 0 0 0 -.53 0 .72.72 0 0 0 -.41.91.69.69 0 0 0 .66.4z"/><path d="m16.05 19.94a.64.64 0 0 0 0-.54.66.66 0 0 0 -.35-.4.68.68 0 0 0 -.54 0 .71.71 0 0 0 -.4.38.7.7 0 0 0 .35.92.75.75 0 0 0 .26.05.7.7 0 0 0 .68-.41z"/><path d="m17.67 20.55a.64.64 0 0 0 0-.54.71.71 0 0 0 -.38-.38.72.72 0 0 0 -.54 0 .7.7 0 0 0 0 1.3.74.74 0 0 0 .25.07.68.68 0 0 0 .67-.45z"/><path d="m18.27 21.62a.73.73 0 0 0 .33.08.71.71 0 0 0 .63-.38.72.72 0 0 0 -.31-.95.7.7 0 0 0 -.65 1.25z"/><path d="m19.41 22a.74.74 0 0 0 .31.45.76.76 0 0 0 .38.11.7.7 0 0 0 .59-.32.72.72 0 0 0 -.2-1 .71.71 0 0 0 -.53-.09.68.68 0 0 0 -.45.3.71.71 0 0 0 -.1.55z"/><path d="m20.94 23.43a.74.74 0 0 0 .5.2.72.72 0 0 0 .71-.69.71.71 0 1 0 -1.22.48z"/><path d="m22.69 23.78a.7.7 0 0 0 -1 .27.64.64 0 0 0 -.07.54.71.71 0 0 0 .68.52.57.57 0 0 0 .18 0 .72.72 0 0 0 .5-.87.72.72 0 0 0 -.29-.46z"/><path d="m22.48 25.47a.71.71 0 0 0 -.8 1.17.72.72 0 0 0 .4.12.69.69 0 0 0 .55-.27.1.1 0 0 0 0 0 .7.7 0 0 0 -.15-1.02z"/><path d="m20.42 26.57a.72.72 0 0 0 -.25 1 .75.75 0 0 0 .61.35.81.81 0 0 0 .36-.1.69.69 0 0 0 .32-.44.7.7 0 0 0 -.07-.53.71.71 0 0 0 -.97-.28z"/><path d="m18.94 27.3a.71.71 0 0 0 -.36.93.72.72 0 0 0 .65.41.64.64 0 0 0 .28-.06.69.69 0 0 0 .38-.39.72.72 0 0 0 0-.54.71.71 0 0 0 -.95-.35z"/><path d="m15.78 28.46a.68.68 0 0 0 -.42.34.72.72 0 0 0 -.06.54.7.7 0 0 0 .68.5h.19a.72.72 0 0 0 .48-.89.71.71 0 0 0 -.87-.49z"/><path d="m17.38 27.93a.7.7 0 0 0 -.42.91.7.7 0 0 0 .66.46.67.67 0 0 0 .24 0 .7.7 0 0 0 .42-.91.71.71 0 0 0 -.9-.46z"/><path d="m14.14 28.88a.66.66 0 0 0 -.44.31.68.68 0 0 0 -.09.52.72.72 0 0 0 .69.56h.15a.7.7 0 1 0 -.31-1.37z"/><path d="m12.49 29.18a.72.72 0 0 0 -.46.28.7.7 0 0 0 -.14.52.7.7 0 0 0 .69.6h.11a.72.72 0 0 0 .46-.28.71.71 0 0 0 -.15-1 .69.69 0 0 0 -.51-.12z"/><path d="m10.82 29.36a.71.71 0 0 0 -.65.76.73.73 0 0 0 .71.66.7.7 0 0 0 .49-.24.73.73 0 0 0 -.08-1 .72.72 0 0 0 -.47-.18z"/><path d="m9.14 29.42a.71.71 0 0 0 -.7.71.68.68 0 0 0 .2.5.72.72 0 0 0 .5.2.7.7 0 0 0 .71-.7.71.71 0 0 0 -.71-.71z"/><path d="m8 29.75v-.08a.81.81 0 0 0 -.12-.14l-.1-.08h-.07l-.11-.05a.74.74 0 0 0 -.39 0 .61.61 0 0 0 -.24.15.44.44 0 0 0 -.12.15v.05.08a1.3 1.3 0 0 0 0 .13v.09a.69.69 0 0 0 .18.48.72.72 0 0 0 .25.18.86.86 0 0 0 .27.05.73.73 0 0 0 .5-.2.75.75 0 0 0 -.05-.51s0-.08 0-.11a.7.7 0 0 0 0-.19z"/></g></svg>