<svg height="512" viewBox="0 0 58 58" width="512" xmlns="http://www.w3.org/2000/svg"><g id="Page-1" fill="none" fill-rule="evenodd"><g id="035---Protractor" fill="rgb(0,0,0)" fill-rule="nonzero"><path id="Shape" d="m57.35 11.78-1.65-1.645-3.141 3.142c-.2510745.2599566-.6228779.3642126-.9725073.2726972-.3496295-.0915155-.6226744-.3645604-.7141899-.7141899-.0915154-.3496294.0127406-.7214328.2726972-.9725073l3.122-3.122c-.8778913-.82858565-1.801683-1.60714806-2.767-2.332l-1.6 2.281c-.2019645.29998989-.5501613.46756249-.9106106.43823901-.3604494-.02932348-.6769818-.2509735-.8278017-.5796633-.1508198-.32868981-.1124244-.71319902.1004123-1.00557571l1.6-2.286c-1.0111181-.65886057-2.0588015-1.25982618-3.138-1.8l-1.132 2.421c-.1641681.35268766-.5179759.57815722-.907.578-.1458777.00017269-.2899873-.03192756-.422-.094-.2404418-.11202836-.4265222-.31499736-.5172933-.5642427-.090771-.24924535-.0787948-.52434332.0332933-.7647573l1.131-2.425c-1.1091908-.47674632-2.2443166-.89073335-3.4-1.24l-.737 2.749c-.1167435.43717624-.5125049.74148185-.965.742-.0875153.00004624-.174636-.01172683-.259-.035-.5334562-.14255589-.8504065-.69050392-.708-1.224l.735-2.744c-1.1757922-.27347064-2.3659936-.48079606-3.565-.621l-.241 2.765c-.0457272.51765575-.4803324.91401573-1 .912-.028 0-.058 0-.088 0-.5500184-.04815877-.9569305-.5329617-.909-1.083l.242-2.762c-1.2050694-.06700026-2.4129306-.06700026-3.618 0l.247 2.833c.0479479.54968071-.3583832 1.0343246-.908 1.083-.03 0-.06 0-.089 0-.5200194.00197144-.9547617-.39494832-1-.913l-.247-2.83c-1.1990064.14020394-2.3892078.34752936-3.565.621l.7 2.61c.1424732.53319233-.1739486 1.08100037-.707 1.224-.084364.02327317-.1714847.03504624-.259.035-.452867-.00006563-.8491603-.30446484-.966-.742l-.7-2.615c-1.1559003.34900533-2.2910593.76333835-3.4 1.241l1.13 2.424c.1120881.24041398.1240643.51551195.0332933.7647573-.0907711.24924534-.2768515.45221434-.5172933.5642427-.1320127.06207244-.2761223.09417269-.422.094-.3886624-.00023161-.7419845-.22564021-.906-.578l-1.121-2.431c-1.0795241.54016882-2.1275406 1.14113399-3.139 1.8l1.463 2.09c.3044386.45220069.1906085 1.06492058-.2559293 1.37760614-.4465379.31268555-1.0612435.21011853-1.3820707-.23060614l-1.46-2.085c-.9654185.72512426-1.8895281 1.50367324-2.768 2.332l3.122 3.122c.2599566.2510745.3642126.6228779.2726972.9725073-.0915155.3496295-.3645604.6226744-.7141899.7141899-.3496294.0915154-.7214328-.0127406-.9725073-.2726972l-3.125-3.117c-.82832676.8784719-1.60687574 1.8025815-2.332 2.768l2.085 1.46c.35576556.2510977.50814432.7035494.37676432 1.1187102-.13137999.4151608-.51631206.6975775-.95176432.6982898-.20480862.0003489-.40467411-.0628952-.572-.181l-2.09-1.463c-.65886601 1.0114594-1.25983118 2.0594759-1.8 3.139l2.426 1.131c.33316265.1450825.56140247.4594766.59615882.8211923.03475635.3617158-.12944151.7138182-.42888224.919686-.29944072.2058677-.68699151.2330967-1.01227658.0711217l-2.429-1.128c-.47750218 1.1090041-.89183187 2.244154-1.241 3.4l2.615.7c.4866441.1282058.80219862.5980808.73675099 1.0970555-.06544763.4989748-.49150498.8715768-.99475099.8699445-.08748089-.0004564-.17453573-.0122206-.259-.035l-2.61-.7c-.27347064 1.1757922-.48079606 2.3659936-.621 3.565l2.83.247c.55228475.0237482.98074824.4907153.957 1.043s-.49071525.9807482-1.043.957c-.02931429.0014948-.05868571.0014948-.088 0l-2.833-.254c-.06700026 1.2050694-.06700026 2.4129306 0 3.618l2.762-.242c.26501561-.0271956.52974557.0541164.73380177.225388.2040562.1712715.33003468.4178948.34919823.683612.04920939.5486446-.35454041 1.0337703-.903 1.085l-2.76.241c.14020394 1.1990064.34752936 2.3892078.621 3.565l2.739-.735c.52580765-.1232096 1.05444974.1933234 1.19412171.7149995.13967197.5216762-.16009231 1.0600041-.67712171 1.2160005l-2.749.737c.34926665 1.1556834.76325368 2.2908092 1.24 3.4l2.425-1.131c.50064613-.2333403 1.09565969-.0166461 1.329.484s.01664613 1.0956597-.484 1.329l-2.426 1.132c.54017382 1.0791985 1.14113943 2.1268819 1.8 3.138l2.286-1.6c.29277915-.205785.67310322-.2397423.99770782-.0890806.32460459.1506617.54417455.4630533.576.8195.03182544.3564466-.12892867.7027956-.42170782.9085806l-2.281 1.6c.72482195.965659 1.50338489 1.8897852 2.332 2.768l3.122-3.122c.2510745-.2599566.6228779-.3642126.9725073-.2726972.3496295.0915155.6226744.3645604.7141899.7141899.0915154.3496294-.0127406.7214328-.2726972.9725073l-3.142 3.14 1.645 1.65c.4176657.4178107.984229.6525464 1.575.6525464s1.1573343-.2347357 1.575-.6525464l42.42-42.42c.4178107-.4176657.6525464-.984229.6525464-1.575s-.2347357-1.1573343-.6525464-1.575zm-20.505 18.78-3.145 3.14-3.14 3.145c-.3923789.3789722-1.0160848.3735524-1.4018186-.0121814s-.3911536-1.0094397-.0121814-1.4018186l2.435-2.436-2.435-2.435c-.3789722-.3923789-.3735524-1.0160848.0121814-1.4018186s1.0094397-.3911536 1.4018186-.0121814l2.435 2.435 2.436-2.435c.3923789-.3789722 1.0160848-.3735524 1.4018186.0121814s.3911536 1.0094397.0121814 1.4018186zm-21.915 7.93c-2.49-6.68-1.57-14.14 3.92-19.64 5.1380237-5.1833666 12.9058085-6.7337595 19.64-3.92z"/></g></g></svg>